# xmcd CD database file
#
# Track frame offsets:
#	150
#	17640
#	30953
#	48490
#	63654
#	82154
#	100702
#	114108
#	129561
#	146166
#	167969
#	188946
#
# Disc length: 2744 seconds
#
# Revision: 2
# Processed by: cddbd v1.5.2PL0 Copyright (c) Steve Scherf et al.
# Submitted via: CDex 1.91
#
DISCID=a10ab60c
DTITLE=Fanny Lumsden - Real Class Act
DYEAR=2017
DGENRE=Country
TTITLE0=Fanny Lumsden - Watershed
TTITLE1=Fanny Lumsden - Roll On
TTITLE2=Fanny Lumsden - Real Class Act
TTITLE3=Fanny Lumsden - Elastic Waistband
TTITLE4=Fanny Lumsden - Big Ol' Dry
TTITLE5=Fanny Lumsden - Real Men Don't Cry (War On Pride)
TTITLE6=Fanny Lumsden - Pretty Little Fools
TTITLE7=Fanny Lumsden - Peppercorn Tree
TTITLE8=Fanny Lumsden - Shootin' The Breeze
TTITLE9=Fanny Lumsden - Perfect Mess
TTITLE10=Fanny Lumsden - Rain On Your Parade
TTITLE11=Fanny Lumsden - Here To Hear
EXTD=YEAR: 2017
EXTT0=
EXTT1=
EXTT2=
EXTT3=
EXTT4=
EXTT5=
EXTT6=
EXTT7=
EXTT8=
EXTT9=
EXTT10=
EXTT11=
PLAYORDER=
